<svg width="42" height="50" viewBox="0 0 42 50" fill="none" xmlns="http://www.w3.org/2000/svg">
<g clip-path="url(#clip0_1_200)">
<path d="M0.73326 6.19485C0.260947 6.13223 0.0078284 5.85823 0.0078284 5.37809C0.0078284 4.5809 -0.0182663 3.7811 0.0287041 2.98651C0.0592157 2.2475 0.354723 1.54415 0.861187 1.00511C1.36765 0.466061 2.05123 0.127331 2.78691 0.050862C3.61189 -0.0159774 4.44093 -0.0159774 5.2659 0.050862C5.85781 0.0992428 6.41726 0.341367 6.85768 0.739761C7.00642 0.870235 7.08862 0.901548 7.2491 0.739761C7.77099 0.186554 8.44293 0.0130247 9.19446 0.0130247C18.2545 0.0191135 27.3159 0.0204182 36.3786 0.0169389C39.6287 0.0169389 41.8689 2.24151 41.882 5.4903C41.8911 9.1018 41.882 12.7133 41.882 16.3261C41.882 26.3151 41.882 36.3046 41.882 46.2945C41.882 47.9907 41.1056 49.2237 39.7135 49.7756C39.4812 49.8669 39.2138 49.8395 39.005 50H20.65C20.3891 49.7625 20.1634 49.512 20.2142 49.1219C20.3734 48.6378 20.7361 48.5282 21.2045 48.5295C25.9172 48.5382 30.6304 48.5382 35.3439 48.5295C36.269 48.5295 37.1953 48.5191 38.1217 48.5139C39.5569 48.6052 40.4076 47.825 40.422 46.395C40.4285 45.697 40.422 44.9976 40.422 44.2983C40.4128 42.8031 39.5086 41.9967 38.0199 42.1376C37.8412 42.1298 37.6637 42.1142 37.485 42.1142H27.7269C21.7738 42.1142 15.8212 42.1142 9.86901 42.1142C9.261 42.1142 8.71692 42.2303 8.27071 42.6869C7.5805 43.3954 6.93205 43.3732 6.2836 42.6243C6.16311 42.4705 6.00983 42.3454 5.8349 42.2583C5.65998 42.1712 5.46782 42.1242 5.27243 42.1207C4.58875 42.1116 3.90507 42.0959 3.22269 42.1207C2.2037 42.1624 1.50958 42.8448 1.48087 43.8534C1.45217 44.8619 1.44956 45.8379 1.48087 46.8282C1.51219 47.8185 2.24936 48.5126 3.25009 48.5243C3.83592 48.5335 4.42435 48.5048 5.00626 48.5322C5.26524 48.5537 5.52548 48.5098 5.76304 48.4045C6.00061 48.2991 6.20788 48.1358 6.3658 47.9294C6.88769 47.3057 7.62617 47.2887 8.18459 47.8785C8.63081 48.3508 9.15532 48.5308 9.79594 48.5308C12.4954 48.5178 15.1949 48.5308 17.8957 48.5204C18.3563 48.5204 18.6786 48.6587 18.8377 49.1141C18.8899 49.5055 18.6551 49.7521 18.402 49.9908H8.83696C8.36856 49.696 7.79317 49.5759 7.40175 49.1584C7.32217 49.0749 7.25562 49.1323 7.20082 49.1923C6.80158 49.6386 6.25359 49.8056 5.71473 49.9908H2.49074C2.4255 49.8225 2.25327 49.8499 2.12802 49.7977C0.875476 49.2759 0.151349 48.3625 0.0247899 47.003C0.0078284 46.8399 0 46.6546 0 46.4759V8.65166C0 7.85317 0.0730651 7.73835 0.729346 7.52829C1.38171 7.73966 1.46913 7.87535 1.46913 8.70255C1.46913 19.3074 1.46913 29.9123 1.46913 40.5172C1.46913 40.7064 1.42346 40.9086 1.51871 41.1004C2.98001 40.4285 4.50394 40.5981 6.01613 40.7794C6.57064 40.8447 6.56281 40.9177 6.56281 40.3671V3.61931C6.56281 3.45622 6.56281 3.29312 6.55498 3.13134C6.47017 2.14496 5.77214 1.49651 4.78446 1.48215C4.29649 1.48215 3.80852 1.48215 3.32055 1.48215C2.16194 1.48215 1.48218 2.16453 1.46783 3.33357C1.4613 3.98594 1.46783 4.63831 1.46783 5.29067C1.46261 5.87128 1.30473 6.05133 0.73326 6.19485ZM38.8093 40.6398C39.3746 40.7432 39.9173 40.945 40.4128 41.2361V40.7077C40.4128 29.0016 40.4128 17.2955 40.4128 5.58946C40.4128 5.34547 40.405 5.10149 40.3854 4.85881C40.2367 3.05697 38.6775 1.57871 36.8626 1.50825C36.6526 1.50042 36.4412 1.48476 36.2298 1.48476H9.38234C8.26418 1.48476 8.03585 1.71048 8.03585 2.81951V41.0482C8.89306 40.5863 9.77637 40.6568 10.6453 40.6568H31.0527C33.6386 40.6524 36.2242 40.6481 38.8093 40.6437V40.6398Z" fill="#050402"/>
<path d="M0.733276 6.19497C1.30736 6.05145 1.46262 5.8714 1.47176 5.28166C1.48219 4.62929 1.47176 3.97693 1.47176 3.32456C1.48611 2.1503 2.16587 1.47836 3.32448 1.47314C3.81245 1.47314 4.30042 1.47314 4.78839 1.47314C5.77868 1.4875 6.4741 2.13595 6.55891 3.12233C6.57326 3.28411 6.56674 3.44721 6.56674 3.6103V40.362C6.56674 40.9126 6.57457 40.8396 6.02006 40.7743C4.51178 40.593 2.98786 40.4234 1.52655 41.0992C1.43131 40.9022 1.47697 40.7078 1.47697 40.516C1.47697 29.9111 1.47697 19.3062 1.47697 8.70137C1.47697 7.87939 1.38956 7.74369 0.737191 7.52711C0.733276 7.0835 0.733276 6.63989 0.733276 6.19497Z" fill="#E8AF4C"/>
<path d="M38.8093 40.6438C36.2233 40.6438 33.6369 40.6459 31.0501 40.6503H10.6493C9.7764 40.6503 8.89309 40.5811 8.03979 41.0417V2.81301C8.03979 1.70399 8.26812 1.47827 9.38628 1.47827H36.2247C36.436 1.47827 36.6474 1.49393 36.8574 1.50176C37.0205 1.77836 37.3389 1.88274 37.5411 2.11629C38.3825 3.07416 38.8349 4.31223 38.8093 5.58688C38.8085 17.2738 38.8085 28.9594 38.8093 40.6438ZM29.3461 12.7955H28.0166C27.8861 12.2045 27.6878 12.031 27.0863 12.031C22.1727 12.031 17.2582 12.031 12.3428 12.031C11.2573 12.031 10.5827 12.7146 10.5827 13.8028C10.5827 19.4471 10.5827 25.0918 10.5827 30.7369C10.5827 31.8303 11.2507 32.5205 12.3324 32.5218C19.2788 32.527 26.2252 32.527 33.1716 32.5218C34.2375 32.5218 34.9212 31.8472 34.9225 30.7891C34.9286 25.1118 34.9286 19.4349 34.9225 13.7584C34.9225 12.7003 34.2336 12.0388 33.1664 12.031C32.223 12.031 31.2797 12.031 30.3364 12.031C29.6997 12.0297 29.534 12.1601 29.3461 12.7955ZM22.7976 5.17197C20.7805 5.17197 18.7634 5.17197 16.7463 5.17197C15.8812 5.17197 15.4128 5.62993 15.3985 6.48323C15.3872 7.13386 15.3872 7.78622 15.3985 8.44033C15.4128 9.29102 15.8904 9.77246 16.7398 9.77246C20.7575 9.77768 24.7756 9.77768 28.7942 9.77246C29.6357 9.77246 30.1054 9.27797 30.1146 8.42337C30.1211 7.80492 30.1146 7.18779 30.1146 6.56934C30.1146 5.6195 29.6645 5.1785 28.7029 5.17589C26.7353 5.17067 24.7669 5.16936 22.7976 5.17197ZM22.7507 36.4556C24.5773 36.4556 26.3922 36.4556 28.2123 36.4556C28.5593 36.4556 28.8646 36.3956 29.0382 36.0642C29.3265 35.5175 28.9077 34.9917 28.1784 34.9904C24.5695 34.9904 20.9597 34.9904 17.3491 34.9904C16.745 34.9904 16.3953 35.267 16.3888 35.7249C16.3823 36.1829 16.7215 36.4556 17.3347 36.4556C19.1422 36.4573 20.9475 36.4573 22.7507 36.4556Z" fill="#FDDE7C"/>
<path d="M38.8093 40.6437C38.8093 28.9603 38.8093 17.2759 38.8093 5.59074C38.8349 4.31609 38.3824 3.07802 37.5411 2.12014C37.3389 1.8866 37.0192 1.78222 36.8574 1.50562C38.6762 1.57607 40.2354 3.05433 40.3802 4.85617C40.3998 5.09885 40.4076 5.34284 40.4076 5.58682C40.4076 17.2929 40.4076 28.999 40.4076 40.705V41.24C39.9137 40.9495 39.3728 40.7477 38.8093 40.6437Z" fill="#FDDE7C"/>
<path d="M28.0165 12.793C27.8417 13.3762 27.6825 13.491 27.0275 13.4923C22.2287 13.4923 17.4295 13.4897 12.6298 13.4845C12.2123 13.4845 12.0361 13.5484 12.0374 14.0338C12.0566 19.5337 12.0566 25.0322 12.0374 30.5295C12.0374 30.9209 12.117 31.0671 12.5437 31.0658C19.0673 31.0527 25.591 31.0492 32.1147 31.0553C32.1956 31.0553 32.2765 31.0449 32.3573 31.0397C32.4382 31.0345 32.5518 31.0566 32.6483 31.0553C33.5538 31.0475 33.4559 31.1623 33.4559 30.2516C33.4559 25.0144 33.4559 19.7772 33.4559 14.54C33.4559 13.4493 33.4559 13.4493 32.356 13.5093C31.6437 13.5093 30.9326 13.491 30.2202 13.4949C29.7309 13.4949 29.4374 13.2666 29.3382 12.7956C29.5261 12.1602 29.6918 12.0297 30.3324 12.0271C31.2757 12.0271 32.219 12.0271 33.1624 12.0271C34.2296 12.0349 34.9172 12.6964 34.9185 13.7546C34.9246 19.431 34.9246 25.1079 34.9185 30.7853C34.9185 31.8434 34.2336 32.5166 33.1676 32.5179C26.2212 32.5232 19.2748 32.5232 12.3284 32.5179C11.2468 32.5179 10.5787 31.8264 10.5787 30.7331C10.5787 25.0888 10.5787 19.4441 10.5787 13.7989C10.5787 12.7108 11.2533 12.0284 12.3388 12.0271C17.2524 12.0271 22.1669 12.0271 27.0823 12.0271C27.6877 12.0284 27.8886 12.2019 28.0165 12.793Z" fill="#030202"/>
<path d="M22.7976 5.17188C24.7669 5.17188 26.7353 5.17188 28.7029 5.17188C29.6645 5.17188 30.1094 5.61549 30.1146 6.56534C30.1146 7.18378 30.1211 7.80092 30.1146 8.41936C30.1055 9.27396 29.6357 9.76715 28.7942 9.76846C24.7756 9.77455 20.7575 9.77455 16.7398 9.76846C15.8904 9.76846 15.4128 9.28701 15.3985 8.43633C15.3872 7.78657 15.3872 7.1342 15.3985 6.47923C15.4128 5.62593 15.8812 5.17449 16.7463 5.16797C18.7634 5.16797 20.7805 5.17188 22.7976 5.17188ZM27.2846 8.2902C27.6421 8.29672 27.9996 8.2902 28.3558 8.31368C28.592 8.32673 28.6481 8.23801 28.6598 8.00837C28.7316 6.56664 28.7211 6.55099 27.2885 6.65536C24.2311 6.65449 21.175 6.64884 18.1202 6.6384C16.8024 6.6384 16.8154 6.6384 16.8546 7.98228C16.8637 8.24323 16.9342 8.31107 17.1886 8.31107C20.5539 8.29802 23.9193 8.29107 27.2846 8.2902Z" fill="#030303"/>
<path d="M22.7506 36.4555C20.9475 36.4555 19.1435 36.4555 17.3386 36.4555C16.7253 36.4555 16.3874 36.1945 16.3926 35.7248C16.3979 35.2551 16.7488 34.9915 17.3529 34.9902C20.9609 34.9902 24.5707 34.9902 28.1822 34.9902C28.9168 34.9902 29.3304 35.5121 29.042 36.064C28.8659 36.398 28.5632 36.4555 28.2161 36.4555C26.3921 36.4515 24.572 36.4555 22.7506 36.4555Z" fill="#060503"/>
<path d="M24.2159 44.8332H10.8919C10.7458 44.8332 10.5984 44.8397 10.4535 44.8332C10.0386 44.7966 9.72941 44.4874 9.7542 44.1025C9.75367 43.9206 9.82198 43.7453 9.94542 43.6117C10.0688 43.4781 10.2383 43.3962 10.4196 43.3823C10.5653 43.3679 10.7119 43.3653 10.858 43.3745H37.605C37.7354 43.3679 37.8661 43.3679 37.9965 43.3745C38.1852 43.3869 38.3624 43.4696 38.4931 43.6063C38.6238 43.7431 38.6985 43.9239 38.7023 44.113C38.6958 44.3015 38.6177 44.4805 38.4839 44.6136C38.3501 44.7466 38.1707 44.8237 37.9821 44.8293C37.8373 44.841 37.6899 44.8293 37.5437 44.8293L24.2159 44.8332Z" fill="#030202"/>
<path d="M24.2681 47.2784H10.7928C10.6307 47.2894 10.4679 47.282 10.3074 47.2562C10.1536 47.2264 10.0148 47.1442 9.91463 47.0236C9.8145 46.903 9.75921 46.7515 9.75815 46.5947C9.74551 46.4473 9.78034 46.2996 9.85756 46.1733C9.93479 46.047 10.0504 45.9487 10.1874 45.8928C10.3865 45.8191 10.5998 45.7919 10.8111 45.8132H37.6038C37.6847 45.8132 37.7669 45.8132 37.8478 45.8132C38.3697 45.8354 38.7037 46.1342 38.6985 46.5621C38.6932 46.9901 38.3592 47.2758 37.8308 47.2758C34.8734 47.2758 31.9125 47.2758 28.9482 47.2758L24.2681 47.2784Z" fill="#040304"/>
<path d="M21.4446 21.9444C22.2209 21.5739 22.9424 21.3834 23.7252 21.57C24.9595 21.8635 25.7737 22.6203 26.0894 23.8337C26.4052 25.0471 26.0568 26.13 25.0952 26.9494C24.1336 27.7687 23.0298 27.9083 21.8608 27.436C21.5998 27.3317 21.4393 27.2377 21.181 27.5104C20.7896 27.9266 20.102 27.6409 20.0067 27.0603C19.9806 26.8181 19.974 26.5742 19.9872 26.3309C19.9872 24.3008 19.9872 22.2702 19.9872 20.2391C19.9785 20.0771 19.989 19.9146 20.0185 19.7551C20.1098 19.3767 20.3734 19.1562 20.757 19.1797C21.1405 19.2032 21.4315 19.4406 21.4419 19.8634C21.4576 20.5275 21.4446 21.1942 21.4446 21.9444ZM24.7338 24.623C24.7396 24.2988 24.6493 23.98 24.4741 23.7071C24.299 23.4341 24.0469 23.2191 23.7497 23.0893C23.4525 22.9595 23.1235 22.9206 22.8042 22.9776C22.485 23.0346 22.1897 23.1849 21.9558 23.4096C21.7219 23.6342 21.5597 23.9231 21.4899 24.2398C21.42 24.5566 21.4455 24.8869 21.5632 25.1891C21.6809 25.4913 21.8855 25.7519 22.1512 25.9379C22.4168 26.1239 22.7317 26.2271 23.0559 26.2344C23.491 26.2394 23.9106 26.0733 24.2244 25.7719C24.5382 25.4705 24.7212 25.0579 24.7338 24.623Z" fill="#050505"/>
<path d="M19.1013 24.5681C19.1013 25.3313 19.1013 26.0959 19.1013 26.8592C19.1013 27.2389 18.98 27.5337 18.5964 27.6512C18.2128 27.7686 17.897 27.6512 17.7366 27.2976C17.5761 26.944 17.3934 27.1919 17.2355 27.2467C16.8788 27.3735 16.5004 27.4279 16.1224 27.4069C15.7444 27.3859 15.3744 27.2898 15.034 27.1242C14.6935 26.9586 14.3894 26.7269 14.1395 26.4426C13.8896 26.1582 13.6988 25.8269 13.5783 25.4681C13.4577 25.1092 13.4099 24.7299 13.4375 24.3523C13.4652 23.9747 13.5678 23.6065 13.7393 23.269C13.9108 22.9315 14.1478 22.6315 14.4365 22.3866C14.7251 22.1417 15.0597 21.9567 15.4207 21.8425C16.03 21.649 16.6876 21.673 17.2812 21.9103C17.4913 21.9912 17.6243 22.0812 17.7653 21.7877C17.9062 21.4941 18.2115 21.3741 18.5546 21.4667C18.7161 21.4995 18.8601 21.5899 18.9599 21.7209C19.0597 21.8519 19.1086 22.0148 19.0974 22.1791C19.0974 22.975 19.0974 23.7722 19.0974 24.5681H19.1013ZM14.8805 24.5681C14.8846 24.8392 14.9687 25.1031 15.1223 25.3266C15.2758 25.5501 15.492 25.7233 15.7436 25.8244C15.9953 25.9255 16.2711 25.9501 16.5367 25.8949C16.8022 25.8398 17.0455 25.7075 17.2361 25.5146C17.4267 25.3216 17.556 25.0767 17.6079 24.8105C17.6598 24.5444 17.6319 24.2688 17.5277 24.0184C17.4235 23.768 17.2477 23.554 17.0224 23.4032C16.797 23.2524 16.5321 23.1715 16.2609 23.1707C16.078 23.1717 15.8972 23.2089 15.7287 23.28C15.5603 23.3511 15.4075 23.4548 15.2792 23.5851C15.151 23.7155 15.0497 23.8699 14.9813 24.0394C14.9129 24.209 14.8786 24.3904 14.8805 24.5733V24.5681Z" fill="#030303"/>
<path d="M26.794 24.6596C26.794 22.2693 29.2586 20.7767 31.3071 21.8414C31.8746 22.1362 32.073 22.5355 31.8642 22.9582C31.6554 23.3809 31.251 23.4488 30.6495 23.1539C30.4213 23.0323 30.1674 22.9668 29.9088 22.9629C29.6502 22.9589 29.3945 23.0166 29.1626 23.1311C28.9308 23.2456 28.7295 23.4138 28.5756 23.6215C28.4216 23.8293 28.3194 24.0707 28.2773 24.3259C28.2352 24.581 28.2544 24.8425 28.3335 25.0887C28.4125 25.3349 28.5491 25.5588 28.7318 25.7417C28.9146 25.9247 29.1383 26.0615 29.3844 26.1408C29.6305 26.2201 29.892 26.2397 30.1472 26.1979C30.4021 26.1461 30.6352 26.0177 30.8152 25.8299C31.1766 25.4972 31.598 25.4855 31.8968 25.7843C32.1956 26.083 32.1708 26.5214 31.8381 26.8698C31.0918 27.6526 30.1602 27.847 29.153 27.6004C28.0113 27.3199 27.2624 26.5723 26.9075 25.4476C26.8184 25.1949 26.7798 24.9272 26.794 24.6596Z" fill="#050505"/>
<path d="M22.7989 15.4221C23.8544 15.4221 24.9099 15.4221 25.9654 15.4221C26.5369 15.4221 26.8696 15.7 26.867 16.1501C26.8644 16.6002 26.5187 16.8847 25.9602 16.886C23.8318 16.886 21.7038 16.886 19.5762 16.886C18.9995 16.886 18.672 16.625 18.6629 16.1684C18.6498 15.6921 18.9747 15.4234 19.584 15.4221C20.6539 15.4194 21.7264 15.4221 22.7989 15.4221Z" fill="#050505"/>
</g>
<defs>
<clipPath id="clip0_1_200">
<rect width="41.8846" height="50" fill="white"/>
</clipPath>
</defs>
</svg>
