<svg width="26" height="26" viewBox="0 0 26 26" fill="none" xmlns="http://www.w3.org/2000/svg">
<path d="M26 13C26 5.82029 20.1797 0 13 0C5.82029 0 0 5.82029 0 13C0 19.4887 4.75394 24.8668 10.9688 25.8421V16.7578H7.66797V13H10.9688V10.1359C10.9688 6.87781 12.9096 5.07812 15.879 5.07812C17.3014 5.07812 18.7891 5.33203 18.7891 5.33203V8.53125H17.1498C15.5349 8.53125 15.0312 9.53332 15.0312 10.5614V13H18.6367L18.0604 16.7578H15.0312V25.8421C21.2461 24.8668 26 19.4887 26 13Z" fill="#1877F2"/>
<path d="M18.0604 16.7578L18.6367 13H15.0312V10.5614C15.0312 9.53332 15.5348 8.53125 17.1498 8.53125H18.7891V5.33203C18.7891 5.33203 17.3013 5.07812 15.879 5.07812C12.9096 5.07812 10.9688 6.87781 10.9688 10.1359V13H7.66797V16.7578H10.9688V25.8421C11.6306 25.9459 12.309 26 13 26C13.691 26 14.3694 25.9459 15.0312 25.8421V16.7578H18.0604Z" fill="white"/>
</svg>
