<svg width="21" height="24" viewBox="0 0 21 24" fill="none" xmlns="http://www.w3.org/2000/svg">
<path d="M5.28551 11.5375C2.56335 8.5564 2.9833 4.23387 5.69258 1.76855C8.29811 -0.601614 12.3237 -0.592313 14.9329 1.80576C17.5992 4.25104 18.0285 8.54996 15.3099 11.5297C15.3227 11.5495 15.3383 11.5674 15.3564 11.5826C17.4032 12.7695 18.7188 14.553 19.5401 16.73C20.3199 18.7947 20.5782 20.951 20.5768 23.1387C20.5768 23.6216 20.2083 23.9721 19.7226 23.9893C19.6331 23.9893 19.5437 23.9893 19.4543 23.9893C13.3926 23.9893 7.33016 23.9793 1.26846 23.9993C0.338417 23.9993 -0.0321674 23.681 0.00217252 22.7116C0.077291 20.5854 0.339133 18.4985 1.13539 16.5075C1.96455 14.4328 3.25158 12.738 5.21325 11.6005C5.23887 11.5813 5.26302 11.5603 5.28551 11.5375ZM18.8462 22.2637C18.7746 20.5038 18.53 18.8061 17.894 17.1843C17.1442 15.2727 15.9466 13.7503 14.0593 12.8382C13.9838 12.796 13.8983 12.7752 13.8119 12.7778C13.7255 12.7805 13.6414 12.8065 13.5686 12.8532C11.3746 14.0083 9.18237 14.0033 6.99177 12.8382C6.92567 12.7972 6.8497 12.775 6.77195 12.7738C6.69421 12.7727 6.61762 12.7927 6.55036 12.8317C5.12382 13.5106 4.05571 14.5659 3.28521 15.9323C2.48466 17.3531 2.0826 18.8991 1.88657 20.5053C1.81503 21.0847 1.77783 21.6685 1.72417 22.2637H18.8462ZM15.4365 6.84299C15.4348 5.82598 15.1316 4.83231 14.5652 3.98763C13.9988 3.14294 13.1946 2.48517 12.2544 2.09748C11.3142 1.70979 10.2802 1.6096 9.283 1.80957C8.28585 2.00953 7.37038 2.50069 6.65234 3.22092C5.93431 3.94115 5.44596 4.85812 5.24905 5.85589C5.05213 6.85365 5.15549 7.8874 5.54605 8.82642C5.93661 9.76545 6.59684 10.5676 7.44326 11.1314C8.28968 11.6952 9.28427 11.9954 10.3013 11.994C11.6647 11.9898 12.9708 11.4453 13.9334 10.4797C14.896 9.51418 15.4365 8.20639 15.4365 6.84299Z" fill="black"/>
</svg>
