<svg width="49" height="62" viewBox="0 0 49 62" fill="none" xmlns="http://www.w3.org/2000/svg">
<g clip-path="url(#clip0_4_724)">
<path d="M8.82008 61.9999C8.45629 61.6965 7.99903 61.7693 7.58635 61.6707C3.3071 60.6391 0.552042 57.4061 0.1106 52.8031C-0.161167 49.9752 0.103411 47.1686 0.518969 44.3756C0.927339 41.6448 1.61323 38.9898 2.86278 36.526C4.51926 33.2657 6.92634 31.034 10.4306 30.2451C12.2164 29.8431 13.8672 29.8992 15.4259 31.1342C17.1384 32.4905 19.0034 33.5889 21.1014 34.2048C23.5947 34.9376 26.042 34.795 28.4764 33.956C29.8589 33.4893 31.1675 32.8072 32.3588 31.9322C32.8276 31.5863 33.3467 31.3117 33.7967 30.9415C35.042 29.922 36.4267 29.8052 37.9236 30.0676C41.7168 30.7321 44.3655 32.9729 46.1514 36.5002C47.5404 39.2401 48.2162 42.1924 48.6404 45.2327C48.9539 47.472 49.02 49.7249 48.9898 51.9854C48.9266 56.8675 45.7689 60.8454 41.2337 61.7587C40.8728 61.8315 40.4816 61.7769 40.1495 61.9999H8.82008Z" fill="#2682FE"/>
<path d="M24.2492 -6.77275e-05C31.4905 -0.11992 38.2243 6.33844 38.3106 14.7463C38.3926 23.0237 32.0801 29.7506 24.4879 29.8871C22.6118 29.9302 20.7463 29.5809 18.9988 28.8594C17.2513 28.138 15.6565 27.0586 14.3064 25.6836C12.9563 24.3087 11.8775 22.6652 11.1324 20.8482C10.3872 19.0311 9.99044 17.0764 9.96488 15.0968C9.87142 6.93619 16.2486 -0.0956461 24.2492 -6.77275e-05Z" fill="#F4A86C"/>
</g>
<defs>
<clipPath id="clip0_4_724">
<rect width="49" height="62" fill="white"/>
</clipPath>
</defs>
</svg>
